# xmcd
#
# Track frame offsets:
# 150
# 12343
# 30050
# 46030
# 61815
# 71624
# 90863
# 103663
# 119072
# 136023
# 151118
# 165419
# 181364
# 196808
# 207821
# 219698
# 233437
# 245109
# 257843
#
# Disc length: 3621 seconds
#
#
# Revision: 0
# Processed by: cddbd v1.5.2PL0 Copyright (c) Steve Scherf et al.
# Submitted via: FreeRIP 2.95 
#
DISCID=ee0e2313
DTITLE=NÃO TEMAS - PLAYBACK
DYEAR=2004
DGENRE=Gospel
TTITLE0=O SENHOR É MEU PASTOR
TTITLE1=NÃO TEMAS
TTITLE2=ELEVO OS MEUS OLHOS
TTITLE3=ELE COFIA EM TI
TTITLE4=LANÇA O TEU CUIDADO
TTITLE5=TU NÃO SERA ATINGIDO
TTITLE6=OS NECESSITADOS BUSCAM
TTITLE7=NÃO TE DEIXAREI
TTITLE8=EU, JOÃO
TTITLE9=DEUS E NOSSO REFUGIO
TTITLE10=SE DEUS É POR NOS
TTITLE11=BEM AVENTURADOS
TTITLE12=EU TE DEIXO A PAZ
TTITLE13=NÃO EM DESESPERO
TTITLE14=TENHO POR CERTO
TTITLE15=QUEM NOS SEPARARA
TTITLE16=POR ISSO EU O LIVRAREI
TTITLE17=MINHA HERANÇA PARA SEMPRE
TTITLE18=PORQUE DEUS AMOU O MUNDO
EXTD=
EXTT0=
EXTT1=
EXTT2=
EXTT3=
EXTT4=
EXTT5=
EXTT6=
EXTT7=
EXTT8=
EXTT9=
EXTT10=
EXTT11=
EXTT12=
EXTT13=
EXTT14=
EXTT15=
EXTT16=
EXTT17=
EXTT18=
PLAYORDER=
